<?xml version="1.0" encoding="UTF-8"?>
<svg width="52px" height="52px" viewBox="0 0 52 52" version="1.1" xmlns="http://www.w3.org/2000/svg" xmlns:xlink="http://www.w3.org/1999/xlink">
    <!-- Generator: Sketch 60 (88103) - https://sketch.com -->
    <title>key-second-democracy</title>
    <desc>Created with Sketch.</desc>
    <g id="key-second-democracy" stroke="none" stroke-width="1" fill="none" fill-rule="evenodd">
        <g id="dot-key/second" transform="translate(1.000000, 1.000000)">
            <g id="key-opacity-setting" opacity="0.2" transform="translate(25.000000, 25.000000) scale(-1, 1) translate(-25.000000, -25.000000) translate(3.000000, 3.000000)" fill="#2fcdae">
                <rect id="main-index-type" x="0" y="0" width="44" height="44"></rect>
            </g>
            <g id="radar-dot-copy" stroke="#0A0A0A">
                <g id="Group">
                    <line x1="0" y1="0" x2="7" y2="7" id="Path-4"></line>
                    <line x1="0" y1="0" x2="7" y2="7" id="Path-4" transform="translate(3.500000, 3.500000) scale(-1, 1) translate(-3.500000, -3.500000) "></line>
                </g>
            </g>
            <g id="radar-dot-copy" transform="translate(43.000000, 0.000000)" stroke="#0A0A0A">
                <g id="Group">
                    <line x1="0" y1="0" x2="7" y2="7" id="Path-4"></line>
                    <line x1="0" y1="0" x2="7" y2="7" id="Path-4" transform="translate(3.500000, 3.500000) scale(-1, 1) translate(-3.500000, -3.500000) "></line>
                </g>
            </g>
            <g id="radar-dot-copy" transform="translate(43.000000, 43.000000)" stroke="#0A0A0A">
                <g id="Group">
                    <line x1="0" y1="0" x2="7" y2="7" id="Path-4"></line>
                    <line x1="0" y1="0" x2="7" y2="7" id="Path-4" transform="translate(3.500000, 3.500000) scale(-1, 1) translate(-3.500000, -3.500000) "></line>
                </g>
            </g>
            <g id="radar-dot-copy" transform="translate(0.000000, 43.000000)" stroke="#0A0A0A">
                <g id="Group">
                    <line x1="0" y1="0" x2="7" y2="7" id="Path-4"></line>
                    <line x1="0" y1="0" x2="7" y2="7" id="Path-4" transform="translate(3.500000, 3.500000) scale(-1, 1) translate(-3.500000, -3.500000) "></line>
                </g>
            </g>
        </g>
    </g>
</svg>