<?xml version="1.0" encoding="UTF-8"?>
<svg width="50px" height="50px" viewBox="0 0 50 50" version="1.1" xmlns="http://www.w3.org/2000/svg" xmlns:xlink="http://www.w3.org/1999/xlink">
    <!-- Generator: Sketch 59.1 (86144) - https://sketch.com -->
    <title>dot key/second</title>
    <desc>Created with Sketch.</desc>
    <g id="dot-key/second" stroke="none" stroke-width="1" fill="none" fill-rule="evenodd">
        <g id="key-opacity-setting" opacity="0.2" transform="translate(25.000000, 25.000000) scale(-1, 1) translate(-25.000000, -25.000000) translate(3.000000, 3.000000)" fill="#6F00FF">
            <rect id="main-index-type" x="0" y="0" width="44" height="44"></rect>
        </g>
        <g id="radar-dot-copy" stroke="#0A0A0A">
            <g id="Group">
                <line x1="0" y1="0" x2="7" y2="7" id="Path-4"></line>
                
                <line x1="0" y1="0" x2="7" y2="7" id="Path-4" transform="translate(3.500000, 3.500000) scale(-1, 1) translate(-3.500000, -3.500000) "></line>
            </g>
        </g>
        <g id="radar-dot-copy" transform="translate(43.000000, 0.000000)" stroke="#0A0A0A">
            <g id="Group">
                <line x1="0" y1="0" x2="7" y2="7" id="Path-4"></line>
                <line x1="0" y1="0" x2="7" y2="7" id="Path-4" transform="translate(3.500000, 3.500000) scale(-1, 1) translate(-3.500000, -3.500000) "></line>
            </g>
        </g>
        <g id="radar-dot-copy" transform="translate(43.000000, 43.000000)" stroke="#0A0A0A">
            <g id="Group">
                <line x1="0" y1="0" x2="7" y2="7" id="Path-4"></line>
                <line x1="0" y1="0" x2="7" y2="7" id="Path-4" transform="translate(3.500000, 3.500000) scale(-1, 1) translate(-3.500000, -3.500000) "></line>
            </g>
        </g>
        <g id="radar-dot-copy" transform="translate(0.000000, 43.000000)" stroke="#0A0A0A">
            <g id="Group">
                <line x1="0" y1="0" x2="7" y2="7" id="Path-4"></line>
                <line x1="0" y1="0" x2="7" y2="7" id="Path-4" transform="translate(3.500000, 3.500000) scale(-1, 1) translate(-3.500000, -3.500000) "></line>
            </g>
        </g>
    </g>
</svg>