<?xml version="1.0" encoding="UTF-8"?>
<svg width="126px" height="47px" viewBox="0 0 126 47" version="1.1" xmlns="http://www.w3.org/2000/svg" xmlns:xlink="http://www.w3.org/1999/xlink">
    <!-- Generator: Sketch 59.1 (86144) - https://sketch.com -->
    <title>logo</title>
    <desc>Created with Sketch.</desc>
    <g id="Symbols" stroke="none" stroke-width="1" fill="none" fill-rule="evenodd">
        <g id="main-selector" transform="translate(-24.000000, -20.000000)" fill="#006EB7">
            <g id="logo" transform="translate(24.000000, 20.000000)">
                <path d="M124.524092,1.491084 C124.590732,1.486716 124.64984,1.474816 124.701024,1.454992 C124.75218,1.43514 124.793424,1.403024 124.824784,1.35898 C124.856508,1.314572 124.871964,1.25426 124.871964,1.177316 C124.871964,1.111852 124.859672,1.059492 124.835872,1.019844 C124.811288,0.979776 124.77836,0.948052 124.737508,0.923832 C124.696264,0.89964 124.64984,0.88298 124.598684,0.874664 C124.547892,0.86632 124.493544,0.861952 124.436844,0.861952 L124.022724,0.861952 L124.022724,1.497412 L124.3214,1.497412 C124.390028,1.497412 124.457452,1.495452 124.524092,1.491084 L124.524092,1.491084 Z M123.797016,2.504152 L123.797016,0.669984 L124.500292,0.669984 C124.708164,0.669984 124.859672,0.713608 124.954872,0.800072 C125.050464,0.886956 125.097672,1.012312 125.097672,1.177316 C125.097672,1.257032 125.085772,1.326472 125.06158,1.386364 C125.037388,1.446256 125.004068,1.496628 124.96162,1.537872 C124.91878,1.579144 124.869584,1.612072 124.81406,1.636264 C124.758536,1.660064 124.69982,1.678292 124.637548,1.689408 L125.183352,2.504152 L124.91878,2.504152 L124.40232,1.689408 L124.022724,1.689408 L124.022724,2.504152 L123.797016,2.504152 Z M123.837476,0.3332 C123.673648,0.404208 123.532444,0.501004 123.413024,0.623168 C123.29324,0.745332 123.20042,0.888944 123.133388,1.053948 C123.066748,1.21856 123.033036,1.396276 123.033036,1.587068 C123.033036,1.77786 123.066748,1.955184 123.133388,2.120188 C123.20042,2.285192 123.29324,2.428804 123.413024,2.550968 C123.532444,2.673552 123.673648,2.769928 123.837476,2.840936 C124.000884,2.912336 124.179384,2.947644 124.372584,2.947644 C124.563376,2.947644 124.74028,2.912336 124.903716,2.840936 C125.067124,2.769928 125.208748,2.673552 125.328532,2.550968 C125.447532,2.428804 125.541556,2.285192 125.609764,2.120188 C125.678,1.955184 125.712524,1.77786 125.712524,1.587068 C125.712524,1.396276 125.678,1.21856 125.609764,1.053948 C125.541556,0.888944 125.447532,0.745332 125.328532,0.623168 C125.208748,0.501004 125.067124,0.404208 124.903716,0.3332 C124.74028,0.262192 124.563376,0.226492 124.372584,0.226492 C124.179384,0.226492 124.000884,0.262192 123.837476,0.3332 L123.837476,0.3332 Z M124.9997,0.121772 C125.193264,0.202692 125.361068,0.314972 125.503084,0.458556 C125.645072,0.602532 125.756932,0.770728 125.837852,0.964292 C125.919164,1.157492 125.959624,1.365336 125.959624,1.587068 C125.959624,1.811572 125.919164,2.019836 125.837852,2.211832 C125.756932,2.4038 125.645072,2.571212 125.503084,2.7132 C125.361068,2.855608 125.193264,2.967076 124.9997,3.047996 C124.806528,3.129308 124.59748,3.169768 124.372584,3.169768 C124.148052,3.169768 123.939004,3.129308 123.745832,3.047996 C123.551876,2.967076 123.384464,2.855608 123.242476,2.7132 C123.10046,2.571212 122.988208,2.4038 122.907288,2.211832 C122.826368,2.019836 122.785516,1.811572 122.785516,1.587068 C122.785516,1.365336 122.826368,1.157492 122.907288,0.964292 C122.988208,0.770728 123.10046,0.602532 123.242476,0.458556 C123.384464,0.314972 123.551876,0.202692 123.745832,0.121772 C123.939004,0.040852 124.148052,-4.52970994e-13 124.372584,-4.52970994e-13 C124.59748,-4.52970994e-13 124.806528,0.040852 124.9997,0.121772 L124.9997,0.121772 Z" id="Fill-1"></path>
                <polygon id="Fill-3" points="-2.8643754e-14 45.788624 1.00475676 45.788624 1.00475676 30.154404 -2.8643754e-14 30.154404"></polygon>
                <path d="M3.721844,34.533324 L4.58976,34.533324 L4.58976,36.942276 L4.635372,36.942276 C4.7873,36.519056 5.004272,36.143016 5.286288,35.814576 C5.56752,35.485716 5.894784,35.204876 6.268052,34.971636 C6.640928,34.738004 7.047908,34.562696 7.489384,34.445656 C7.930888,34.329456 8.379896,34.270348 8.836856,34.270348 C9.521904,34.270348 10.1038,34.350876 10.583776,34.511512 C11.06336,34.672568 11.454856,34.883184 11.759496,35.146188 C12.063744,35.409164 12.30334,35.704676 12.478648,36.033116 C12.653592,36.361556 12.77934,36.693972 12.855892,37.029552 C12.93166,37.365916 12.977272,37.690408 12.992728,38.004176 C13.0074,38.318336 13.015352,38.592036 13.015352,38.825276 L13.015352,45.788736 L12.147436,45.788736 L12.147436,38.672144 C12.147436,38.394888 12.12484,38.044216 12.0792,37.621388 C12.033588,37.197356 11.900308,36.792756 11.67978,36.4056 C11.458832,36.019256 11.124036,35.68684 10.674608,35.409164 C10.2256,35.1323 9.605596,34.993056 8.813868,34.993056 C8.143884,34.993056 7.55048,35.110096 7.032816,35.343728 C6.51518,35.576968 6.074068,35.902216 5.708752,36.318324 C5.343408,36.733648 5.065368,37.230676 4.87494,37.806636 C4.684568,38.383772 4.58976,39.014864 4.58976,39.701116 L4.58976,45.788736 L3.721844,45.788736 L3.721844,34.533324 Z" id="Fill-4"></path>
                <path d="M15.984052,42.044016 C16.01418,42.569604 16.135952,43.033312 16.348976,43.43472 C16.562392,43.836156 16.840432,44.179268 17.18276,44.463692 C17.525088,44.74848 17.924928,44.963884 18.381496,45.109848 C18.838064,45.25584 19.332712,45.328808 19.865832,45.328808 C20.246212,45.328808 20.653192,45.29588 21.087556,45.230052 C21.521108,45.164588 21.924532,45.0436 22.297772,44.869076 C22.670648,44.69374 22.978452,44.44902 23.222416,44.135252 C23.46596,43.821484 23.587732,43.424024 23.587732,42.941668 C23.587732,42.314552 23.389408,41.84012 22.993936,41.51882 C22.598072,41.19794 22.099448,40.949608 21.498512,40.7743 C20.896764,40.598964 20.250188,40.456556 19.557216,40.347468 C18.864636,40.237596 18.217668,40.073376 17.616312,39.854416 C17.015376,39.635064 16.51636,39.325664 16.120888,38.923836 C15.724632,38.5224 15.527484,37.935352 15.527484,37.160648 C15.527484,36.6065 15.656788,36.14282 15.915424,35.770336 C16.174032,35.398664 16.504852,35.10276 16.908668,34.88338 C17.311672,34.66484 17.765076,34.50776 18.267256,34.412952 C18.769828,34.318144 19.272008,34.270544 19.774188,34.270544 C20.382684,34.270544 20.953884,34.33598 21.487396,34.4673 C22.019732,34.598984 22.479856,34.811196 22.86858,35.10276 C23.25652,35.394688 23.56116,35.767172 23.781324,36.219372 C24.002272,36.672356 24.112928,37.219364 24.112928,37.861572 L23.245432,37.861572 C23.245432,37.350656 23.157372,36.913128 22.98282,36.547812 C22.807512,36.18328 22.563548,35.88774 22.251768,35.661248 C21.939596,35.434756 21.570304,35.267372 21.144284,35.1575 C20.717872,35.04802 20.261696,34.99328 19.774188,34.99328 C19.378324,34.99328 18.978876,35.029372 18.575872,35.10276 C18.172056,35.175728 17.810688,35.299488 17.490984,35.474824 C17.171252,35.65016 16.908668,35.87626 16.702812,36.153908 C16.49732,36.431192 16.395372,36.767164 16.395372,37.160648 C16.395372,37.614052 16.508828,37.978976 16.7377,38.25626 C16.96618,38.533124 17.26606,38.75606 17.638936,38.923836 C18.012596,39.092032 18.430692,39.226488 18.895576,39.328828 C19.359284,39.431168 19.827752,39.533508 20.299384,39.635064 C20.878116,39.738188 21.42154,39.858 21.932064,39.996824 C22.441776,40.135648 22.883252,40.325264 23.25652,40.565644 C23.629396,40.806808 23.922136,41.117412 24.135944,41.496616 C24.348548,41.87624 24.455648,42.358568 24.455648,42.941668 C24.455648,43.554924 24.310468,44.0587 24.021704,44.452576 C23.732128,44.846872 23.366812,45.164588 22.925308,45.40536 C22.483832,45.64616 21.993132,45.813544 21.45248,45.909136 C20.91222,46.003552 20.382684,46.051544 19.865832,46.051544 C19.195848,46.051544 18.575872,45.96704 18.005064,45.799264 C17.433864,45.63188 16.93524,45.376016 16.508828,45.032904 C16.0832,44.689792 15.74762,44.27052 15.50486,43.773884 C15.260532,43.27764 15.1312,42.700896 15.116136,42.044016 L15.984052,42.044016 Z" id="Fill-5"></path>
                <path d="M30.871456,35.255948 L28.31374,35.255948 L28.31374,43.117088 C28.31374,43.56968 28.367696,43.927072 28.474012,44.190076 C28.579908,44.45266 28.744128,44.653364 28.964684,44.792608 C29.185632,44.93104 29.4518,45.014732 29.763972,45.044076 C30.075752,45.07384 30.437512,45.08098 30.84886,45.066308 L30.84886,45.788624 C30.406964,45.817576 29.976968,45.81402 29.558088,45.777536 C29.1396,45.741416 28.7707,45.631544 28.450604,45.449488 C28.131684,45.267012 27.87624,44.993312 27.686232,44.627996 C27.495832,44.263436 27.415696,43.759296 27.446636,43.117088 L27.446636,35.255948 L25.27728,35.255948 L25.27728,34.533212 L27.446636,34.533212 L27.446636,31.029852 L28.31374,31.029852 L28.31374,34.533212 L30.871456,34.533212 L30.871456,35.255948 Z" id="Fill-6"></path>
                <path d="M32.675412,32.409076 L33.542936,32.409076 L33.542936,30.15362 L32.675412,30.15362 L32.675412,32.409076 Z M32.675412,45.788624 L33.542936,45.788624 L33.542936,34.533212 L32.675412,34.533212 L32.675412,45.788624 Z" id="Fill-7"></path>
                <path d="M40.621168,35.255948 L38.063452,35.255948 L38.063452,43.117088 C38.063452,43.56968 38.116624,43.927072 38.223724,44.190076 C38.330012,44.45266 38.49384,44.653364 38.714396,44.792608 C38.935344,44.93104 39.201484,45.014732 39.513684,45.044076 C39.825464,45.07384 40.187224,45.08098 40.59776,45.066308 L40.59776,45.788624 C40.156676,45.817576 39.727072,45.81402 39.3078,45.777536 C38.889312,45.741416 38.520412,45.631544 38.200316,45.449488 C37.881396,45.267012 37.625924,44.993312 37.435944,44.627996 C37.245544,44.263436 37.165408,43.759296 37.196348,43.117088 L37.196348,35.255948 L35.026964,35.255948 L35.026964,34.533212 L37.196348,34.533212 L37.196348,31.029852 L38.063452,31.029852 L38.063452,34.533212 L40.621168,34.533212 L40.621168,35.255948 Z" id="Fill-8"></path>
                <path d="M51.512636,45.78854 L50.644748,45.78854 L50.644748,43.379588 L50.599528,43.379588 C50.446788,43.803228 50.230208,44.178876 49.948584,44.507708 C49.666568,44.836148 49.339696,45.116988 48.966848,45.350228 C48.59358,45.58386 48.1866,45.759196 47.745096,45.876208 C47.30362,45.992436 46.854584,46.051152 46.397624,46.051152 C45.712968,46.051152 45.13068,45.971016 44.650704,45.81038 C44.17154,45.650108 43.779624,45.437896 43.474984,45.175704 C43.170344,44.9127 42.930748,44.617188 42.755832,44.288748 C42.580496,43.960308 42.455168,43.62792 42.3794,43.29234 C42.30324,42.95676 42.257208,42.631876 42.242536,42.317716 C42.226688,42.00434 42.219128,41.73064 42.219128,41.496616 L42.219128,34.533128 L43.087044,34.533128 L43.087044,41.64972 C43.087044,41.942068 43.109668,42.295904 43.15528,42.712012 C43.201284,43.12812 43.334172,43.529528 43.55512,43.916292 C43.776068,44.30342 44.106468,44.635444 44.548364,44.9127 C44.989448,45.189984 45.61382,45.328808 46.42064,45.328808 C47.07514,45.328808 47.664988,45.212188 48.190548,44.978164 C48.715352,44.744924 49.160804,44.419648 49.52654,44.00396 C49.891856,43.588244 50.16914,43.092 50.35954,42.515256 C50.549548,41.93812 50.644748,41.30742 50.644748,40.620776 L50.644748,34.533128 L51.512636,34.533128 L51.512636,45.78854 Z" id="Fill-9"></path>
                <path d="M58.385712,35.255948 L55.828024,35.255948 L55.828024,43.117088 C55.828024,43.56968 55.88156,43.927072 55.988268,44.190076 C56.094192,44.45266 56.258412,44.653364 56.47894,44.792608 C56.699888,44.93104 56.966056,45.014732 57.278228,45.044076 C57.590008,45.07384 57.951768,45.08098 58.363116,45.066308 L58.363116,45.788624 C57.920828,45.817576 57.491252,45.81402 57.072372,45.777536 C56.653884,45.741416 56.284984,45.631544 55.96486,45.449488 C55.645548,45.267012 55.390496,44.993312 55.200488,44.627996 C55.010088,44.263436 54.929952,43.759296 54.960892,43.117088 L54.960892,35.255948 L52.791536,35.255948 L52.791536,34.533212 L54.960892,34.533212 L54.960892,31.029852 L55.828024,31.029852 L55.828024,34.533212 L58.385712,34.533212 L58.385712,35.255948 Z" id="Fill-10"></path>
                <path d="M59.984008,40.27044 L59.984008,40.402124 C59.984008,41.058612 60.07526,41.68654 60.258912,42.285124 C60.44178,42.88368 60.71268,43.409268 61.071668,43.861468 C61.429872,44.314452 61.880476,44.672264 62.42194,44.934456 C62.963768,45.197432 63.593684,45.328724 64.310848,45.328724 C65.486176,45.328724 66.417148,45.03282 67.104576,44.441796 C67.79122,43.850744 68.264028,43.029644 68.52384,41.978104 L69.391756,41.978104 C69.132336,43.292256 68.573036,44.299388 67.713072,44.999892 C66.852688,45.701208 65.71544,46.05146 64.29934,46.05146 C63.431452,46.05146 62.67422,45.90152 62.027644,45.602032 C61.380676,45.303356 60.840416,44.894388 60.406472,44.376332 C59.9725,43.858304 59.64882,43.24544 59.435824,42.536592 C59.2228,41.828948 59.11612,41.066144 59.11612,40.248236 C59.11612,39.460064 59.226384,38.7044 59.44694,37.982084 C59.66786,37.260132 59.9991,36.624672 60.440576,36.077272 C60.88208,35.52948 61.43382,35.091952 62.096272,34.763512 C62.758696,34.435072 63.53816,34.27046 64.436596,34.27046 C65.25848,34.27046 65.985584,34.416424 66.617068,34.708772 C67.24816,35.000728 67.778116,35.39858 68.204136,35.901964 C68.629764,36.405712 68.953836,36.990016 69.174392,37.653644 C69.39492,38.318448 69.505604,39.029676 69.505604,39.788896 C69.505604,39.861864 69.50202,39.945976 69.494488,40.040364 C69.486564,40.135564 69.48298,40.212536 69.48298,40.27044 L59.984008,40.27044 Z M68.615092,39.548124 C68.584544,38.934476 68.477836,38.35454 68.294968,37.80714 C68.111316,37.260132 67.840388,36.777804 67.482212,36.361696 C67.122832,35.945588 66.688468,35.613984 66.17716,35.365652 C65.665068,35.117348 65.081968,34.993196 64.42548,34.993196 C63.72338,34.993196 63.105,35.121324 62.570676,35.376376 C62.03638,35.63182 61.58614,35.967792 61.220432,36.3839 C60.853912,36.799616 60.571476,37.285528 60.37276,37.840068 C60.1748,38.394608 60.052636,38.96382 60.006632,39.548124 L68.615092,39.548124 Z" id="Fill-11"></path>
                <path d="M0.000196,1.21408 L9.32582,1.21408 C11.045776,1.21408 12.425392,1.608376 13.464248,2.396156 C14.503524,3.185112 15.023148,4.376708 15.023148,5.971308 C15.023148,6.938792 14.78554,7.767424 14.311136,8.456812 C13.83592,9.14662 13.159608,9.67974 12.2822,10.05578 L12.2822,10.109344 C13.464248,10.360812 14.360332,10.920532 14.969612,11.789232 C15.57808,12.658716 15.88314,13.746768 15.88314,15.054592 C15.88314,15.807456 15.748656,16.510732 15.479716,17.164448 C15.21156,17.818556 14.79072,18.383008 14.21714,18.857412 C13.64356,19.332628 12.908532,19.708276 12.01326,19.985952 C11.117176,20.263992 10.051328,20.402452 8.814932,20.402452 L0.000196,20.402452 L0.000196,1.21408 Z M3.35916,9.250164 L8.841896,9.250164 C9.648324,9.250164 10.320268,9.021292 10.858148,8.563912 C11.395244,8.107372 11.663792,7.449288 11.663792,6.588932 C11.663792,5.621448 11.421816,4.94116 10.937892,4.546472 C10.45436,4.152596 9.755816,3.95584 8.841896,3.95584 L3.35916,3.95584 L3.35916,9.250164 Z M3.35916,17.661476 L9.298464,17.661476 C10.320268,17.661476 11.112808,17.396904 11.67726,16.868936 C12.242132,16.340184 12.523756,15.592052 12.523756,14.624596 C12.523756,13.67576 12.242132,12.9451 11.67726,12.434212 C11.112808,11.923688 10.320268,11.668636 9.298464,11.668636 L3.35916,11.668636 L3.35916,17.661476 Z" id="Fill-12"></path>
                <path d="M20.210036,14.248304 C20.210036,14.7854 20.286196,15.305836 20.438516,15.807204 C20.590444,16.3086 20.818532,16.747724 21.123956,17.124156 C21.427812,17.500196 21.813372,17.800468 22.279068,18.02458 C22.745156,18.2483 23.300872,18.360552 23.94546,18.360552 C24.841124,18.360552 25.562264,18.167772 26.10888,17.782212 C26.655496,17.397464 27.06326,16.819516 27.331808,16.04918 L30.234204,16.04918 C30.072756,16.80126 29.795108,17.473204 29.401204,18.064648 C29.006936,18.656064 28.532112,19.153092 27.97718,19.556124 C27.421436,19.95952 26.798688,20.26416 26.10888,20.470436 C25.419464,20.6759 24.697932,20.779024 23.94546,20.779024 C22.852648,20.779024 21.885164,20.59974 21.043456,20.241144 C20.200936,19.88336 19.488896,19.381572 18.906608,18.736592 C18.324292,18.09122 17.885588,17.321304 17.589656,16.42522 C17.294144,15.529556 17.1458,14.543844 17.1458,13.46926 C17.1458,12.48394 17.30288,11.547424 17.616648,10.660468 C17.929604,9.773904 18.377856,8.994468 18.960536,8.322524 C19.542068,7.650552 20.245736,7.117432 21.070028,6.723164 C21.8939,6.329652 22.825656,6.132504 23.864932,6.132504 C24.957352,6.132504 25.938304,6.360592 26.807816,6.81716 C27.676096,7.274512 28.397656,7.87864 28.970816,8.631504 C29.544816,9.384004 29.961316,10.248336 30.221128,11.22492 C30.480156,12.201504 30.547972,13.209448 30.422224,14.248304 L20.210036,14.248304 Z M27.35838,12.232444 C27.322288,11.749304 27.219556,11.283244 27.049764,10.835384 C26.879216,10.387944 26.64676,9.997624 26.350436,9.66602 C26.055316,9.334808 25.696748,9.06626 25.27588,8.859984 C24.85462,8.654128 24.384164,8.551004 23.864932,8.551004 C23.327052,8.551004 22.839152,8.645 22.400056,8.832628 C21.960932,9.02104 21.584892,9.281244 21.271516,9.612484 C20.957776,9.944088 20.707064,10.334408 20.519044,10.781848 C20.330632,11.229288 20.227116,11.713604 20.210036,12.232444 L27.35838,12.232444 Z" id="Fill-13"></path>
                <path d="M32.08856,6.508488 L34.964384,6.508488 L34.964384,9.1959 L35.01792,9.1959 C35.107184,8.819468 35.2821,8.452528 35.54152,8.09396 C35.80136,7.736148 36.1151,7.408912 36.482432,7.112588 C36.849344,6.817468 37.2575,6.58028 37.70536,6.400968 C38.1528,6.222076 38.610152,6.132448 39.07582,6.132448 C39.434024,6.132448 39.68076,6.141548 39.815216,6.15902 C39.94928,6.176856 40.088132,6.195112 40.231716,6.212948 L40.231716,9.168908 C40.01634,9.133208 39.79738,9.101876 39.57324,9.07452 C39.348736,9.04834 39.129384,9.034844 38.914792,9.034844 C38.394748,9.034844 37.906456,9.137968 37.449888,9.34346 C36.99332,9.549708 36.594684,9.854348 36.254344,10.25738 C35.913612,10.660384 35.645064,11.157804 35.447916,11.749248 C35.250768,12.340664 35.152796,13.021344 35.152796,13.79168 L35.152796,20.402508 L32.08856,20.402508 L32.08856,6.508488 Z" id="Fill-14"></path>
                <path d="M54.125848,19.676888 C54.125848,21.773668 53.538772,23.336152 52.365824,24.3663 C51.1917,25.397232 49.503496,25.911704 47.300008,25.911704 C46.601072,25.911704 45.897796,25.840304 45.190124,25.697112 C44.482088,25.5535 43.837108,25.311944 43.255184,24.971604 C42.672476,24.631264 42.184576,24.18304 41.790308,23.627688 C41.396012,23.072364 41.162772,22.391684 41.091372,21.585256 L44.155636,21.585256 C44.244872,22.015644 44.397584,22.3643 44.612176,22.63366 C44.827188,22.90218 45.08224,23.112432 45.378536,23.264752 C45.673656,23.417072 46.000528,23.515436 46.359096,23.561048 C46.716908,23.605092 47.09334,23.627688 47.488028,23.627688 C48.72364,23.627688 49.628432,23.322656 50.202012,22.71416 C50.7752,22.104908 51.061584,21.22666 51.061584,20.080312 L51.061584,17.957352 L51.00844,17.957352 C50.578836,18.727268 49.991788,19.32742 49.248024,19.757808 C48.504288,20.187804 47.703012,20.402788 46.842656,20.402788 C45.731588,20.402788 44.78712,20.2104 44.007264,19.82484 C43.22822,19.440092 42.58324,18.91092 42.072324,18.239368 C41.56222,17.567424 41.189736,16.79272 40.957308,15.914528 C40.724068,15.037092 40.607448,14.09618 40.607448,13.092632 C40.607448,12.16166 40.751032,11.274704 41.037836,10.432184 C41.32422,9.590056 41.736352,8.85108 42.274232,8.214808 C42.81172,7.578956 43.470196,7.0728 44.24924,6.696368 C45.028676,6.32072 45.910872,6.132308 46.896584,6.132308 C47.77402,6.132308 48.580448,6.31638 49.315476,6.683292 C50.049692,7.050204 50.613752,7.628152 51.00844,8.415932 L51.061584,8.415932 L51.061584,6.508348 L54.125848,6.508348 L54.125848,19.676888 Z M47.32658,17.983924 C48.007652,17.983924 48.585208,17.845492 49.060004,17.567424 C49.534436,17.289748 49.919996,16.922444 50.215508,16.465876 C50.511412,16.008524 50.726396,15.4889 50.860488,14.906976 C50.994552,14.32466 51.061584,13.737612 51.061584,13.146168 C51.061584,12.555144 50.990576,11.981956 50.846992,11.426632 C50.7038,10.8717 50.484448,10.378228 50.188516,9.948652 C49.893004,9.518264 49.507052,9.177924 49.033432,8.92682 C48.558216,8.676528 47.989004,8.55078 47.32658,8.55078 C46.645508,8.55078 46.071928,8.694784 45.606624,8.980384 C45.140144,9.267972 44.764104,9.639644 44.477328,10.096212 C44.190916,10.55278 43.98506,11.072796 43.859704,11.655112 C43.733956,12.2374 43.672076,12.814956 43.672076,13.388144 C43.672076,13.961724 43.742692,14.521416 43.886696,15.068032 C44.029496,15.61462 44.24924,16.10252 44.545144,16.532908 C44.840656,16.962512 45.217116,17.31198 45.673656,17.58092 C46.131036,17.84986 46.681208,17.983924 47.32658,17.983924 L47.32658,17.983924 Z" id="Fill-15"></path>
                <path d="M69.793584,19.676888 C69.793584,21.773668 69.206508,23.336152 68.03356,24.3663 C66.859436,25.397232 65.171232,25.911704 62.967352,25.911704 C62.268808,25.911704 61.565532,25.840304 60.85786,25.697112 C60.149824,25.5535 59.504452,25.311944 58.92292,24.971604 C58.33982,24.631264 57.85192,24.18304 57.458044,23.627688 C57.063748,23.072364 56.830508,22.391684 56.7595,21.585256 L59.82298,21.585256 C59.912216,22.015644 60.064928,22.3643 60.27994,22.63366 C60.494532,22.90218 60.749976,23.112432 61.04588,23.264752 C61.34142,23.417072 61.668264,23.515436 62.02686,23.561048 C62.384644,23.605092 62.761076,23.627688 63.155764,23.627688 C64.391376,23.627688 65.296168,23.322656 65.869748,22.71416 C66.442544,22.104908 66.730132,21.22666 66.730132,20.080312 L66.730132,17.957352 L66.675784,17.957352 C66.24618,18.727268 65.659132,19.32742 64.91576,19.757808 C64.171632,20.187804 63.370356,20.402788 62.51,20.402788 C61.399324,20.402788 60.454856,20.2104 59.675,19.82484 C58.895564,19.440092 58.250584,18.91092 57.74006,18.239368 C57.229956,17.567424 56.8575,16.79272 56.625044,15.914528 C56.391412,15.037092 56.275184,14.09618 56.275184,13.092632 C56.275184,12.16166 56.418768,11.274704 56.705572,10.432184 C56.991956,9.590056 57.404088,8.85108 57.941968,8.214808 C58.479064,7.578956 59.13754,7.0728 59.916976,6.696368 C60.69644,6.32072 61.579,6.132308 62.56432,6.132308 C63.441756,6.132308 64.248184,6.31638 64.98282,6.683292 C65.717036,7.050204 66.28188,7.628152 66.675784,8.415932 L66.730132,8.415932 L66.730132,6.508348 L69.793584,6.508348 L69.793584,19.676888 Z M62.994316,17.983924 C63.674996,17.983924 64.252944,17.845492 64.72774,17.567424 C65.20178,17.289748 65.587732,16.922444 65.883244,16.465876 C66.179148,16.008524 66.39416,15.4889 66.528224,14.906976 C66.662288,14.32466 66.730132,13.737612 66.730132,13.146168 C66.730132,12.555144 66.65792,11.981956 66.514728,11.426632 C66.371144,10.8717 66.152184,10.378228 65.85628,9.948652 C65.56074,9.518264 65.174788,9.177924 64.701168,8.92682 C64.22598,8.676528 63.65674,8.55078 62.994316,8.55078 C62.313244,8.55078 61.739664,8.694784 61.27436,8.980384 C60.80788,9.267972 60.43184,9.639644 60.145064,10.096212 C59.85826,10.55278 59.652796,11.072796 59.527048,11.655112 C59.40172,12.2374 59.33942,12.814956 59.33942,13.388144 C59.33942,13.961724 59.410428,14.521416 59.554432,15.068032 C59.697232,15.61462 59.916976,16.10252 60.21288,16.532908 C60.508,16.962512 60.884852,17.31198 61.34142,17.58092 C61.798772,17.84986 62.348944,17.983924 62.994316,17.983924 L62.994316,17.983924 Z" id="Fill-16"></path>
                <path d="M72.32988,6.508488 L75.205704,6.508488 L75.205704,9.1959 L75.25924,9.1959 C75.348504,8.819468 75.523028,8.452528 75.78284,8.09396 C76.042652,7.736148 76.35642,7.408912 76.723752,7.112588 C77.091056,6.817468 77.49882,6.58028 77.94668,6.400968 C78.39412,6.222076 78.851472,6.132448 79.31714,6.132448 C79.675344,6.132448 79.92208,6.141548 80.056536,6.15902 C80.1906,6.176856 80.329452,6.195112 80.473036,6.212948 L80.473036,9.168908 C80.257632,9.133208 80.038672,9.101876 79.81456,9.07452 C79.590056,9.04834 79.370704,9.034844 79.156112,9.034844 C78.63646,9.034844 78.147776,9.137968 77.69202,9.34346 C77.23464,9.549708 76.836004,9.854348 76.495272,10.25738 C76.154932,10.660384 75.886384,11.157804 75.689236,11.749248 C75.491696,12.340664 75.394116,13.021344 75.394116,13.79168 L75.394116,20.402508 L72.32988,20.402508 L72.32988,6.508488 Z" id="Fill-17"></path>
                <path d="M94.19032,20.402648 L91.180432,20.402648 L91.180432,18.4681 L91.126868,18.4681 C90.750828,19.166224 90.190352,19.726308 89.44698,20.147176 C88.703244,20.568044 87.946404,20.779472 87.175676,20.779472 C85.34862,20.779472 84.026544,20.326488 83.211772,19.421668 C82.396636,18.517688 81.989264,17.150756 81.989264,15.323728 L81.989264,6.5086 L85.053108,6.5086 L85.053108,15.027796 C85.053108,16.245964 85.285172,17.106348 85.751652,17.607716 C86.217712,18.109504 86.871036,18.360188 87.713556,18.360188 C88.358536,18.360188 88.896416,18.262216 89.325992,18.064676 C89.75638,17.867136 90.105456,17.603768 90.374004,17.271352 C90.642944,16.94014 90.835332,16.542288 90.951952,16.075808 C91.068152,15.610504 91.126868,15.108324 91.126868,14.570836 L91.126868,6.5086 L94.19032,6.5086 L94.19032,20.402648 Z" id="Fill-18"></path>
                <path d="M98.797132,14.248304 C98.797132,14.7854 98.873292,15.305836 99.025612,15.807204 C99.17754,16.3086 99.40602,16.747724 99.711052,17.124156 C100.0153,17.500196 100.400468,17.800468 100.866136,18.02458 C101.332224,18.2483 101.887968,18.360552 102.532556,18.360552 C103.42822,18.360552 104.149752,18.167772 104.695976,17.782212 C105.242564,17.397464 105.650356,16.819516 105.918876,16.04918 L108.821692,16.04918 C108.659852,16.80126 108.382596,17.473204 107.9883,18.064648 C107.594004,18.656064 107.1196,19.153092 106.563856,19.556124 C106.00814,19.95952 105.385756,20.26416 104.695976,20.470436 C104.00656,20.6759 103.28542,20.779024 102.532556,20.779024 C101.439716,20.779024 100.47226,20.59974 99.630524,20.241144 C98.788004,19.88336 98.075992,19.381572 97.493676,18.736592 C96.91178,18.09122 96.472656,17.321304 96.176752,16.42522 C95.88124,15.529556 95.73368,14.543844 95.73368,13.46926 C95.73368,12.48394 95.889976,11.547424 96.203716,10.660468 C96.517092,9.773904 96.964924,8.994468 97.548024,8.322524 C98.129556,7.650552 98.832832,7.117432 99.657516,6.723164 C100.480996,6.329652 101.412752,6.132504 102.452028,6.132504 C103.544448,6.132504 104.5254,6.360592 105.394884,6.81716 C106.263584,7.274512 106.984724,7.87864 107.558304,8.631504 C108.131884,9.384004 108.547992,10.248336 108.808196,11.22492 C109.067224,12.201504 109.135068,13.209448 109.009712,14.248304 L98.797132,14.248304 Z M105.945868,12.232444 C105.909776,11.749304 105.806624,11.283244 105.63686,10.835384 C105.465892,10.387944 105.233856,9.997624 104.937924,9.66602 C104.642412,9.334808 104.283816,9.06626 103.863368,8.859984 C103.441716,8.654128 102.971652,8.551004 102.452028,8.551004 C101.914148,8.551004 101.426248,8.645 100.987516,8.832628 C100.548028,9.02104 100.171988,9.281244 99.858612,9.612484 C99.544844,9.944088 99.294552,10.334408 99.10614,10.781848 C98.917728,11.229288 98.814576,11.713604 98.797132,12.232444 L105.945868,12.232444 Z" id="Fill-19"></path>
                <path d="M110.712616,6.508488 L113.615404,6.508488 L113.615404,8.55092 L113.668968,8.604456 C114.134244,7.83454 114.744336,7.229628 115.496416,6.790896 C116.248888,6.3518 117.08228,6.132448 117.995808,6.132448 C119.518616,6.132448 120.718528,6.526324 121.596748,7.314496 C122.474968,8.10348 122.913672,9.285528 122.913672,10.862292 L122.913672,20.402508 L119.85022,20.402508 L119.85022,11.66872 C119.813736,10.575488 119.58128,9.782948 119.150892,9.289896 C118.721316,8.797236 118.049736,8.55092 117.135424,8.55092 C116.6158,8.55092 116.150104,8.644916 115.737972,8.832936 C115.32584,9.020956 114.976372,9.28158 114.689988,9.6124 C114.403184,9.944396 114.179856,10.334324 114.018436,10.78098 C113.856596,11.229204 113.776852,11.70442 113.776852,12.205788 L113.776852,20.402508 L110.712616,20.402508 L110.712616,6.508488 Z" id="Fill-20"></path>
                <polygon id="Fill-22" points="0.000784 45.789016 1.00554076 45.789016 1.00554076 30.1543984 0.000784 30.1543984"></polygon>
                <path d="M3.722628,34.533688 L4.590544,34.533688 L4.590544,36.94264 L4.635764,36.94264 C4.788084,36.519392 5.004664,36.143352 5.286708,35.814912 C5.568332,35.485688 5.895568,35.204848 6.268836,34.971608 C6.641712,34.737976 7.048692,34.56264 7.490168,34.44602 C7.931672,34.3294 8.380708,34.270712 8.837248,34.270712 C9.522296,34.270712 10.104612,34.351212 10.584588,34.511876 C11.063752,34.672512 11.455668,34.883548 11.760308,35.146552 C12.064136,35.409528 12.304124,35.70504 12.47946,36.03348 C12.653984,36.36192 12.780124,36.693944 12.856284,37.029916 C12.932052,37.36628 12.978056,37.690772 12.99354,38.004512 C13.00782,38.318672 13.016136,38.59198 13.016136,38.82522 L13.016136,45.7891 L12.148248,45.7891 L12.148248,38.672508 C12.148248,38.395252 12.125624,38.04458 12.080012,37.621332 C12.034008,37.197692 11.90112,36.793092 11.680172,36.405572 C11.459224,36.019592 11.124428,35.687204 10.67542,35.409528 C10.226384,35.132664 9.606408,34.99342 8.814652,34.99342 C8.144668,34.99342 7.551264,35.110432 7.033628,35.344092 C6.515572,35.577332 6.074488,35.90258 5.709536,36.318688 C5.34422,36.734012 5.066152,37.231012 4.875752,37.806972 C4.68496,38.384136 4.590544,39.015228 4.590544,39.701452 L4.590544,45.7891 L3.722628,45.7891 L3.722628,34.533688 Z" id="Fill-23"></path>
                <path d="M15.98464,42.044408 C16.014768,42.569996 16.136568,43.033704 16.349956,43.43514 C16.56298,43.836548 16.841048,44.17966 17.183376,44.464084 C17.525676,44.74848 17.925516,44.963884 18.382084,45.11024 C18.838652,45.256232 19.3333,45.3292 19.86642,45.3292 C20.246828,45.3292 20.6542,45.2963 21.088144,45.230444 C21.521696,45.16498 21.92512,45.04402 22.298388,44.869468 C22.671236,44.69416 22.979068,44.449412 23.223004,44.135644 C23.466576,43.821876 23.588348,43.424416 23.588348,42.94206 C23.588348,42.314944 23.390416,41.84054 22.994916,41.51924 C22.59866,41.198332 22.100428,40.95 21.4991,40.774692 C20.897744,40.598964 20.250776,40.456948 19.557804,40.347468 C18.865224,40.237596 18.218256,40.073768 17.616928,39.854416 C17.015964,39.635456 16.516948,39.326056 16.121476,38.923836 C15.725612,38.52282 15.528072,37.935744 15.528072,37.16104 C15.528072,36.60692 15.657376,36.14282 15.916012,35.770728 C16.174648,35.399056 16.505468,35.10276 16.909256,34.8838 C17.312288,34.665232 17.765664,34.508152 18.267844,34.412952 C18.770416,34.318144 19.273016,34.270936 19.774776,34.270936 C20.383664,34.270936 20.954472,34.3364 21.487984,34.467692 C22.02032,34.598984 22.480836,34.811196 22.869196,35.10276 C23.257108,35.39508 23.561776,35.767564 23.781912,36.219764 C24.00286,36.672748 24.113908,37.219756 24.113908,37.861964 L23.24602,37.861964 C23.24602,37.351048 23.15796,36.91352 22.983408,36.548204 C22.8081,36.183672 22.564136,35.88816 22.252356,35.661248 C21.940184,35.435148 21.571284,35.267372 21.144872,35.1575 C20.71846,35.048412 20.262284,34.993672 19.774776,34.993672 C19.378912,34.993672 18.979464,35.029764 18.57646,35.10276 C18.172644,35.17612 17.811276,35.29988 17.491572,35.475216 C17.171868,35.650552 16.909256,35.876652 16.703792,36.1543 C16.497936,36.431192 16.395988,36.767164 16.395988,37.16104 C16.395988,37.614052 16.509416,37.979368 16.738288,38.25626 C16.966768,38.533516 17.267068,38.75606 17.639524,38.923836 C18.013184,39.092424 18.43128,39.22688 18.896164,39.32922 C19.359872,39.43156 19.82834,39.5339 20.300364,39.635456 C20.878704,39.73858 21.422156,39.858392 21.932652,39.996824 C22.442364,40.13604 22.883868,40.325656 23.257108,40.566036 C23.629984,40.806808 23.922724,41.117804 24.136532,41.497008 C24.349136,41.876632 24.456236,42.358568 24.456236,42.94206 C24.456236,43.555316 24.311056,44.059092 24.022292,44.452576 C23.732716,44.847264 23.3674,45.16498 22.926288,45.40578 C22.48442,45.646552 21.993748,45.813936 21.453488,45.909528 C20.912808,46.003944 20.383664,46.051544 19.86642,46.051544 C19.196436,46.051544 18.57646,45.96746 18.005652,45.799656 C17.434844,45.632272 16.935828,45.376408 16.509416,45.033296 C16.083788,44.690184 15.748208,44.270912 15.505476,43.774276 C15.26112,43.27806 15.131816,42.701288 15.116724,42.044408 L15.98464,42.044408 Z" id="Fill-24"></path>
                <path d="M30.872212,35.25634 L28.314496,35.25634 L28.314496,43.11748 C28.314496,43.56968 28.36806,43.927464 28.474768,44.190468 C28.580664,44.453052 28.744492,44.653756 28.96544,44.793 C29.186388,44.931432 29.452136,45.015124 29.764728,45.044496 C30.076088,45.07384 30.438268,45.081372 30.849196,45.066308 L30.849196,45.789016 C30.407328,45.817996 29.977724,45.814412 29.558844,45.777928 C29.139964,45.741836 28.771064,45.631936 28.45136,45.449488 C28.132048,45.267404 27.876576,44.993312 27.686988,44.628388 C27.496168,44.263856 27.416452,43.759688 27.447,43.11748 L27.447,35.25634 L25.278008,35.25634 L25.278008,34.533604 L27.447,34.533604 L27.447,31.029852 L28.314496,31.029852 L28.314496,34.533604 L30.872212,34.533604 L30.872212,35.25634 Z" id="Fill-25"></path>
                <path d="M32.675804,32.409468 L33.543328,32.409468 L33.543328,30.154404 L32.675804,30.154404 L32.675804,32.409468 Z M32.675804,45.789016 L33.543328,45.789016 L33.543328,34.533604 L32.675804,34.533604 L32.675804,45.789016 Z" id="Fill-26"></path>
            </g>
        </g>
    </g>
</svg>