<?xml version="1.0" encoding="UTF-8"?>
<svg width="31px" height="42px" viewBox="0 0 31 42" version="1.1" xmlns="http://www.w3.org/2000/svg" xmlns:xlink="http://www.w3.org/1999/xlink">
    <!-- Generator: Sketch 59.1 (86144) - https://sketch.com -->
    <title>logo graphic</title>
    <desc>Created with Sketch.</desc>
    <g id="Symbols" stroke="none" stroke-width="1" fill="none" fill-rule="evenodd">
        <g id="main-selector" transform="translate(-1626.000000, -25.000000)" fill="#006EB7">
            <g id="logo-graphic" transform="translate(1626.000000, 25.000000)">
                <path d="M28.0726435,22.8699486 C26.7330394,21.4396367 25.4251782,20.5574692 22.9235303,19.323458 C27.2324791,17.5648488 29.1007801,14.6663471 29.0873891,10.6283932 C29.0799496,8.53091624 28.5572042,6.68496444 27.5186524,5.09006344 C26.480097,3.4960772 24.9758334,2.246244 23.0083404,1.34056384 C21.0398531,0.43532412 17.8577393,-1.63424829e-13 12.6753917,-1.63424829e-13 L1.27897692e-13,0.03601444 L1.27897692e-13,41.1158532 L16.0682932,41.0693021 C19.3094293,41.0587654 22.0074831,40.5307795 24.1609632,39.4849378 C26.3149404,38.4386218 27.9461723,37.090401 29.0546553,35.4397674 C30.1631419,33.789642 30.7136636,31.9163491 30.7062814,29.8183978 C30.6972793,27.1718616 29.8769686,24.7974835 28.0726435,22.8699486 L28.0726435,22.8699486 Z M16.2656899,31.10184 L10.7361687,31.10184 L10.7361687,10.0125903 L16.2656899,10.0125903 L16.2656899,31.10184 Z" id="Fill-21"></path>
            </g>
        </g>
    </g>
</svg>