<?xml version="1.0" encoding="UTF-8"?>
<svg width="20px" height="20px" viewBox="0 0 20 20" version="1.1" xmlns="http://www.w3.org/2000/svg" xmlns:xlink="http://www.w3.org/1999/xlink">
    <!-- Generator: Sketch 60 (88103) - https://sketch.com -->
    <title>reload</title>
    <desc>Created with Sketch.</desc>
    <g id="Assets" stroke="none" stroke-width="1" fill="none" fill-rule="evenodd">
        <g id="reload" transform="translate(-5.000000, -5.000000)" fill="#6F00FF">
            <path d="M8.41,19.0547295 L21,19.0547295 C22.1045695,19.0547295 23,18.159299 23,17.0547295 C23,16.5024447 23.4477153,16.0547295 24,16.0547295 C24.5522847,16.0547295 25,16.5024447 25,17.0547295 C25,19.2638685 23.209139,21.0547295 21,21.0547295 L8.41,21.0547295 L10.71,23.3547295 C11.0471653,23.7538754 11.0202154,24.3453075 10.6481468,24.7121356 C10.2760783,25.0789637 9.68432351,25.0975222 9.29,24.7547295 L5.29,20.7547295 C4.90885712,20.365886 4.90885712,19.743573 5.29,19.3547295 L9.29,15.3547295 C9.53240293,15.0677659 9.91517806,14.9408548 10.2810073,15.0261556 C10.6468365,15.1114565 10.9340036,15.394579 11.0244847,15.7591615 C11.1149658,16.1237441 10.9934965,16.5082807 10.71,16.7547295 L8.4,19.0547295 L8.41,19.0547295 Z M9,11.0547295 C7.8954305,11.0547295 7,11.95016 7,13.0547295 C7,13.6070142 6.55228475,14.0547295 6,14.0547295 C5.44771525,14.0547295 5,13.6070142 5,13.0547295 C5,10.8455905 6.790861,9.05472949 9,9.05472949 L21.59,9.05472949 L19.29,6.75472949 C19.0065035,6.50828075 18.8850342,6.12374405 18.9755153,5.75916151 C19.0659964,5.39457897 19.3531635,5.11145651 19.7189927,5.02615564 C20.0848219,4.94085477 20.4675971,5.06776595 20.71,5.35472949 L24.71,9.35472949 C25.0911429,9.743573 25.0911429,10.365886 24.71,10.7547295 L20.71,14.7547295 C20.3156765,15.0975222 19.7239217,15.0789637 19.3518532,14.7121356 C18.9797846,14.3453075 18.9528347,13.7538754 19.29,13.3547295 L21.6,11.0547295 L9,11.0547295 Z" id="Shape"></path>
        </g>
    </g>
</svg>