<?xml version="1.0" encoding="UTF-8"?>
<svg width="100%" height="313px" viewBox="0 0 473 313" version="1.1" xmlns="http://www.w3.org/2000/svg" xmlns:xlink="http://www.w3.org/1999/xlink">
    <!-- Generator: Sketch 60 (88103) - https://sketch.com -->
    <title>scatter-placeholder</title>
    <desc>Created with Sketch.</desc>
    <defs>
        <path d="M5,2.08712234 C7.76142375,2.08712234 10,4.32569859 10,7.08712234 L10,146.022883 C10,148.784307 7.76142375,151.022883 5,151.022883 C2.23857625,151.022883 3.38176876e-16,148.784307 0,146.022883 L0,7.08712234 C-3.38176876e-16,4.32569859 2.23857625,2.08712234 5,2.08712234 Z M219.694596,-1.13686838e-13 C222.45602,-1.14194103e-13 224.694596,2.23857625 224.694596,5 L224.694596,143.935761 C224.694596,146.697185 222.45602,148.935761 219.694596,148.935761 C216.933172,148.935761 214.694596,146.697185 214.694596,143.935761 L214.694596,5 C214.694596,2.23857625 216.933172,-1.13179572e-13 219.694596,-1.13686838e-13 Z" id="path-1"></path>
        <linearGradient x1="15.5740093%" y1="29.2865876%" x2="82.3185278%" y2="70.7134124%" id="linearGradient-3">
            <stop stop-color="#00FFE0" offset="0%"></stop>
            <stop stop-color="#6F00FF" offset="50.3853463%"></stop>
            <stop stop-color="#FF6300" offset="100%"></stop>
        </linearGradient>
    </defs>
    <g id="scatter-placeholder" stroke="none" stroke-width="1" fill="none" fill-rule="evenodd">
        <line x1="40" y1="275" x2="464.5" y2="8.5" id="Path" stroke="#6F00FF" stroke-linecap="round" stroke-linejoin="round"></line>
        <g id="Rectangle" transform="translate(137.000000, 69.000000)">
            <mask id="mask-2" fill="white">
                <use xlink:href="#path-1"></use>
            </mask>
            <use id="Mask" fill="#D8D8D8" xlink:href="#path-1"></use>
            <rect fill="url(#linearGradient-3)" mask="url(#mask-2)" x="-104.010033" y="-68.5758299" width="439.148037" height="282.651809"></rect>
        </g>
        <rect id="Rectangle" stroke-opacity="0.109948645" stroke="#000000" stroke-width="1.045" x="33" y="1" width="439" height="282" rx="2"></rect>
        <text id="body-copy-5" font-family="HelveticaNeue, Helvetica Neue" font-size="14" font-weight="normal" line-spacing="22" fill="#646464">
            <tspan x="150" y="82">Country 1</tspan>
        </text>
        <text id="body-copy-7" font-family="HelveticaNeue, Helvetica Neue" font-size="14" font-weight="normal" line-spacing="22" fill="#646464">
            <tspan x="261" y="142">Country 2</tspan>
        </text>
        <circle id="Oval-Copy" fill="#FFFFFF" cx="142" cy="77" r="3"></circle>
        <circle id="Oval-Copy-3" fill="#000000" cx="251" cy="142" r="3"></circle>
        <text id="body-copy-8" font-family="HelveticaNeue, Helvetica Neue" font-size="14" font-weight="normal" line-spacing="22" fill="#646464">
            <tspan x="364" y="208">Country 3</tspan>
        </text>
        <circle id="Oval-Copy-4" fill="#FFFFFF" cx="356" cy="213" r="3"></circle>
        <text id="Government" transform="translate(11.500000, 142.000000) rotate(-90.000000) translate(-11.500000, -142.000000) " font-family="HelveticaNeue-Bold, Helvetica Neue" font-size="14" font-weight="bold" line-spacing="22" letter-spacing="0.4" fill="#0A0A0A">
            <tspan x="-31.723" y="145">Government</tspan>
        </text>
        <text id="Democracy" font-family="HelveticaNeue-Bold, Helvetica Neue" font-size="14" font-weight="bold" line-spacing="22" letter-spacing="0.4" fill="#0A0A0A">
            <tspan x="211.466" y="307">Democracy</tspan>
        </text>
        <line x1="251.5" y1="1" x2="251.5" y2="283" id="Path-2" stroke-opacity="0.109948645" stroke="#000000" stroke-width="1.045"></line>
        <line x1="253.5" y1="-78" x2="253.5" y2="362" id="Path-2" stroke-opacity="0.109948645" stroke="#000000" stroke-width="1.045" transform="translate(253.500000, 142.000000) rotate(-90.000000) translate(-253.500000, -142.000000) "></line>
    </g>
</svg>